<?xml version="1.0" encoding="utf-8"?>
<!-- Generator: Adobe Illustrator 26.5.0, SVG Export Plug-In . SVG Version: 6.00 Build 0)  -->
<svg version="1.1" id="Layer_1" xmlns="http://www.w3.org/2000/svg" xmlns:xlink="http://www.w3.org/1999/xlink" x="0px" y="0px"
	 viewBox="0 0 718 481" style="enable-background:new 0 0 718 481;" xml:space="preserve">
<style type="text/css">
	.st0{fill:#936303;}
</style>
<g id="Page-1">
	<g id="animal-crossing-logo" transform="translate(-1.000000, -1.000000)">
		<path id="Shape" class="st0" d="M357.3,68.7c3.7-4.9,4-11.4,5.3-17.7c0.5,3.7,1,7.4,1.5,11.1c0.1,0.8,0.4,1.7,1,2.3
			c2.1,2.4,2.5,4.3,1.1,6.3c-1.5,2.2-3.6,2.6-6,1.5c-0.3-0.1-0.6-0.1-1.3-0.2c0.4,0.6,0.6,0.8,0.7,1c0.3,1.1,1.1,2.5,0.7,3.2
			c-0.5,1-2,1.6-3.1,1.8c-1.2,0.2-2.6-0.3-3.9-0.4c-2-0.1-4-0.2-5.8-0.3c0.8-2.1,1.5-4.3,2.6-6.4c0.8-1.6,1.8-3.6,3.2-4.3
			C354.1,66.4,356,68,357.3,68.7z M362.1,65.1L362.1,65.1c-0.4,0-0.7,0.2-0.9,0.5c-0.7,1-1.5,1.9-1.4,2.6c0.2,1,1.7,2.1,2.8,2.3
			c0.7,0.1,2.1-1.6,2.1-2.5c0-0.8-1-1.7-1.6-2.5C362.9,65.2,362.5,65.1,362.1,65.1z"/>
		<g id="Group">
			<path id="Path" class="st0" d="M481.1,185.9c2.6,0.6,5.4,0.4,7.9-0.3c3-0.9,6-2.9,7.1-8c2.1-9.9-8.1-12.6-13.7-12.2
				c-7.6,0.6-11,7.1-9.9,13.2C474,183.2,477.6,185.1,481.1,185.9z"/>
			<circle id="Oval" class="st0" cx="283" cy="259.2" r="17.7"/>
			<path id="Path_00000155120645124025667450000011308129346283516321_" class="st0" d="M185.2,164.4c4.6-0.4,9.2-1,13.8-1.5
				c-0.1-0.4-0.1-0.7-0.1-1c-3.2-7.9-6.3-15.7-9.4-23.6c-1.3-3.7-2.7-3.7-3-1.9c-0.3,2.1-0.7,4.2-1,6.2c-1,6.2-1.9,12.5-2.9,18.8
				c-0.1,1-0.1,2-0.3,2.9C183.3,164.4,184.3,164.4,185.2,164.4z"/>
			<path id="Shape_00000159453601576537727270000017939668650356792252_" class="st0" d="M612.3,300.9c-2.4-11.9-5.4-23.7-8.2-35.5
				c-0.9-3.7-1.7-7.5-2.6-11.3c-0.1-0.3,0.1-0.5,0.4-0.6c1.7-0.7,3.2-1.2,4.7-1.7c1.5-0.4,1.9-1.2,1.5-2.9
				c-4.5-16.5-8.8-33.1-13.1-49.6c-0.6-2.4-1.9-2.3-3.7-1.8c-2.8,0.7-5.6,1.3-8.7,2c-0.4,0.1-0.7-0.2-0.7-0.6c1-6.1,2.1-11.8,3-17.7
				c0.1-0.3-0.1-0.5-0.4-0.6c-1.9-0.6-3.7-1.2-5.5-1.5c-1.5-0.3-2.2-0.7-1.9-2.6c3.6-19.4,7.1-38.8,10.7-58.2c0.1-0.7,1.2-1.5,2-1.6
				c2.4-0.2,4.7-0.1,7.1-0.1c3,0,6,0,9.3,0c0.4,0,0.7-0.4,0.5-0.7c-7.6-15.4-15-30.5-22.6-45.8c-0.1-0.1-0.3-0.3-0.4-0.3
				c-2.4,0-6.9-0.1-9.4-0.3c-16.9-0.6-33.8-1.3-50.7-2.7c-4.6-0.4-9.3-0.6-13.8-0.9c-13.1-0.8-26.2-1.6-39.2-2.4
				c-13.3-0.8-26.7-1.7-40-2.4c-2.6-0.1-5.1-0.1-7.4-0.1c-0.3,0-0.5-0.2-0.5-0.5v-4.9c0-0.3-0.2-0.5-0.5-0.5c-1.1,0-2,0-2.1,0h-8.3
				c-0.3,0-0.5-0.2-0.5-0.4c-0.1-0.7-0.2-1.5-0.5-2.4c-1-2.5-2-5-3.2-7.4c-0.6-1.2-0.6-2,0.4-2.9c1.4-1.3,2.6-2.7,3.8-4
				c1.2-1.3,1.2-3.3,0-4.6c-4.9-5.3-9.9-10.5-14.7-15.7c-1.1-1.2-2.9-1.1-4,0.1c-1.8,2-4.3,4.7-6.1,5.1c-2.7,0.7-6.1-1.8-9.3-2.7
				c-1.8-0.5-2.5-1.5-2.4-3.4c0.1-1.5,0.1-3.1,0.1-4.6c0-2-1.7-3.6-3.7-3.5C366.6,8.8,357.5,9,352,9.2c-2,0.1-3.3,2-2.7,3.8
				c1,2.8,1.5,4.9,2.3,7.9c0.6,2.2-0.5,4.6-2.6,5.5c-1.5,0.7-2.9,1.3-4.5,2.1c-2.7,1.2-7.3-2.9-8.5-3.9l0,0
				c-1.5-1.5-3.1-3.1-4.6-4.6c-1.3-1.3-3.5-1.3-4.9-0.1c-3.8,3.5-11.1,10.3-14.9,14c-1.4,1.3-1.5,3.6-0.1,5.1
				c1.2,1.3,2.4,2.6,3.7,3.8c1.1,1.1,1.5,2,0.8,3.6c-1.2,2.8-2.1,5.7-3.4,8.5c-0.3,0.6-1.2,1.2-1.8,1.3c-3,0.6-6,1-9,1.5
				c-0.2,0.1-0.4,0.2-0.4,0.4c-0.3,2.6-0.4,2.6-3.5,2.8c-8.8,0.3-17.6,0.6-26.5,1.1c-11.2,0.7-126.4,9.6-133.7,8.5
				c-0.2,0-0.4,0.1-0.6,0.3c-8.1,15.1-16.1,30-24,44.8c-0.2,0.4,0.1,0.8,0.4,0.8c5.4,0,10.5,0,15.6,0c4.2,0,4-0.1,4.3,4
				c0.4,7.4,1.1,14.6,1.7,22.3c0,0.3,0.3,0.5,0.6,0.5c2-0.1,3.7-0.3,5.3-0.4c1.3-0.1,2,0.2,1.7,1.8c-1.4,8.9-2.9,17.7-4.2,26.6
				c-0.4,2.3-1.2,3.6-3.7,3.7c-3.5,0.2-7,0.7-10.6,1.1c-0.3,0-0.5,0.3-0.4,0.6c0.1,1.5,0.3,2.8,0.4,4c0.8,6.4,1.7,12.8,2.3,19.3
				c0.1,1-0.7,2.5-1.5,3.1c-1.5,1.1-3.6,1.5-5,2.6c-2.7,2.2-6.7,3.4-6.9,7.9c0,0.4-0.9,0.9-2,1.8l0.3-1c0.1-0.5-0.4-0.9-0.9-0.6
				c-1.4,1.2-2.8,2.4-4,3.8c-5.1,6-9.3,12.6-12.6,19.8c-4.7,10.3-7.6,21-7.7,32.3c-0.2,14.1,3.2,27.3,10.8,39.4
				c7.8,12.5,18.7,21.1,32.6,25.8c13.2,4.4,26.7,5.1,40.4,2.8c0.2,0,0.4,0,0.7,0s0.4,0.2,0.4,0.6l0.2,1.2c0.1,0.3,0.3,0.4,0.6,0.4
				c27.1-2,54.1-4,81.3-6c0.3,0,0.5-0.3,0.5-0.6c-0.8-9.2-1.5-18-2.4-27.3c0-0.4,0.4-0.7,0.8-0.5c16.9,9.3,33.8,10.2,51.3,3.6
				c0.2-0.1,0.5,0,0.7,0.2c1.5,2.1,2.7,4.3,4.3,6.1c9.1,10.7,21.2,14.4,34.8,15c2.1,0.1,3,0.7,3.9,2.6c6.2,12.6,15.7,21.2,29.8,24
				c10.4,2,20.7,1.5,30.4-3.3c5.1-2.6,9.5-6,13.4-11c0.3-0.4,1-0.1,1,0.3v3.4c0,0.3,0.2,0.5,0.4,0.5c38.1,4.3,75.9,8.7,113.7,13
				c0.3,0,0.5-0.1,0.6-0.4c0.2-1.7,0.4-3.2,0.7-4.9c0.1-0.4,0.5-0.6,0.8-0.4c1,0.7,1.9,1.3,2.8,1.8c1.1,0.7,2.4,1.2,3.5,1.7
				c18.9,7.9,36.5,4.9,52.1-7.6C612.2,337.6,616.1,320.1,612.3,300.9z M522.3,205.8c0.6-3.2,1.2-6.3,1.8-9.5c0.1-1,0.5-1.4,1.7-1.1
				c1.6,0.4,3.4,0.5,5,1c1.3,0.4,1.6-0.1,1.8-1.2c1-6.1,13.7-75.1,14.2-76.6c-3.7-0.6-6.3-1.1-11-1.6c0.6-3.3,1.2-6.7,1.6-10.1
				c0.2-1.3,1-1.1,1.8-1c1.8,0.3,23.2,4.9,23.3,4.9c-0.4,1.9-16.9,87.2-17.1,88.5c-0.1,0.4,0.1,0.7,0.1,0.6c3.3,0.7,6.3,1.2,9.9,1.9
				c-1.1,3.5-3.4,10.7-3.7,12.1c-1.5-0.1-28.5-4.9-29.9-4.7C522,208.1,522.1,207,522.3,205.8z M457.8,173.6
				c0.6-4.7,2.4-8.8,5.4-12.5c2.7-3.1,6-5.2,9.9-6.3c7.1-2.1,14.3-1.6,21,1.5c1.7,0.8,3.2,2,4.8,3c0.7-3,0.7-12.9-7.8-16
				c-5.3-1.8-14.5,3.2-19.6,5.3c-1.1-2.4-2-4.4-2.9-6.4c-0.6-1.4-1.2-2.8-1.8-4.2c-0.4-0.9-0.3-1.5,0.6-2c4-2.5,8.3-3.9,12.9-4.6
				c7.1-1,13.6,0,19.6,3.2c4,2.1,7.4,5.4,9.3,9.6c3.8,8.5,3.2,19.3,2.5,24.8c-0.9,6.2-1.8,12.6-2.9,18.8c-0.2,1.2,0.1,1.3,1.4,1.3
				c2.2-0.1,4.5,0.4,7.1,0.6c-0.9,4.4-1.8,11.8-1.9,12.3c-4.4-0.7-19.8-2.9-22.1-3.4c0.5-1.9,0.7-2.6,1.3-5
				c-0.4-0.6-1.4-0.2-2.3,0.2c-19.6,6.9-28.5-4.3-31-7C458.6,182.8,457.1,178.6,457.8,173.6z M333.9,70.4c1.8,0,3.1,0.1,4.3-0.1
				c0.4,0,0.7-0.2,1-0.4c0.4-0.2,0.3-0.7,0-0.9c-0.4-0.2-0.7-0.4-1.1-0.4c-1.2-0.1-2.6-0.1-3.9-0.1c0-0.3,0-0.6,0-0.8
				c1.5,0,2.9,0.1,4.3-0.1c0.3,0,0.6-0.3,0.9-0.5c0.3-0.2,0.2-0.7-0.1-0.8s-0.5-0.3-0.8-0.4c-1.3-0.1-2.6-0.1-4.5,0
				c-0.4,0-0.6-0.4-0.5-0.7c1-3.3,1.8-6.3,2.6-9.3c0.1-0.3,0.4-0.4,0.7-0.4c2.1,0.9,3.8,1.6,5.6,2.4c0.1,0,0.2-0.2,0.4-0.6
				c0.1-0.2,0.1-0.6-0.1-0.7c-1.5-1-2.9-1.9-4.8-3.2c-0.3-0.1-0.3-0.6-0.1-0.8c2.6-2.7,5-5.3,7.6-8.1c0.2-0.2,0.7-0.2,0.8,0.1
				c1.2,1.7,2.3,3.2,3.3,4.6c0.1,0.2,0.5,0.3,0.7,0.1l0.6-0.5c0.2-0.1,0.2-0.4,0.1-0.7c-0.9-1.3-1.8-2.6-2.8-4.2
				c-0.1-0.2-0.1-0.6,0.1-0.7c3.3-2,6.8-3.1,10.9-3.4c0.3,0,0.6,0.2,0.6,0.6c0,1-0.1,1.8,0.1,2.6c0.1,0.5,0.3,1.1,0.4,1.6
				c0.1,0.4,0.8,0.4,1,0c0.2-0.6,0.4-1.1,0.4-1.7c0.1-0.7,0-1.5,0.6-2.4c0,1.2-0.1,2.4,0.1,3.6c0.1,0.4,0.3,0.8,0.6,1.2
				c0.2,0.3,0.7,0.3,0.9,0c0.2-0.4,0.4-0.7,0.4-1.1c0.1-1.2,0.1-2.4,0.1-4.2c0-0.4,0.4-0.6,0.7-0.5c3.4,1,6.4,1.8,9.6,2.7
				c0.4,0.1,0.5,0.5,0.3,0.8c-1,1.8-1.9,3.2-2.8,4.6c-0.1,0.2-0.1,0.5,0.1,0.7c1.5,1.5,1.8-0.3,2.4-1.2s1.2-1.8,2.1-3.2
				c0.1-0.3,0.6-0.3,0.8-0.1c2.7,2.6,5.3,4.9,8.1,7.6c0.2,0.2,0.2,0.7,0,0.8l-4.5,3.3c-0.3,0.2-0.3,0.6-0.1,0.8
				c0.6,0.5,1.4,0.1,5.7-2.1c0.3-0.1,0.7,0,0.7,0.3c1.1,3.5,2.1,6.9,3.4,10.8c0.1,0.4-0.1,0.7-0.5,0.7c-2,0-3.4-0.1-4.8,0.1
				c-0.3,0-0.5,0.2-0.8,0.4c-0.2,0.2-0.2,0.6,0,0.8c0.3,0.2,0.5,0.4,0.8,0.4c1.5,0.1,2.9,0.1,4.3,0.1c0,0.3,0,0.5,0.1,0.8
				c0,0-1.8,0-3.5,0c-0.1,1.2,0,0.7-0.1,2c1.2,0,2.6-0.3,4,0.3c0.2,0.1,0.4,0.4,0.3,0.7c-0.8,2.9-1.7,6-2.6,9.1
				c-0.1,0.3-0.4,0.5-0.7,0.4c-2-1-3.7-1.8-5.4-2.5c-0.1,0-0.3,0.3-0.6,0.7c-0.1,0.2-0.1,0.6,0.1,0.7c1.5,1,2.9,2,4.7,3.2
				c0.3,0.1,0.3,0.6,0.1,0.8c-2.5,2.6-4.9,5.2-7.4,7.9c-0.2,0.2-0.7,0.2-0.8-0.1c-1.2-1.7-2.2-3-3.2-4.3c-1.4,0.7-1.5,0.7,1.4,5.5
				c0.1,0.3,0,0.7-0.3,0.8c-3.6,1.2-7.1,2.3-11,3.5c-0.4,0.1-0.7-0.1-0.7-0.5c0-1.9,0.1-3.2-0.1-4.5c-0.1-0.4-0.3-0.7-0.6-1.1
				c-0.2-0.3-0.7-0.3-0.9,0c-0.2,0.3-0.4,0.7-0.4,1c-0.1,1.3-0.1,2.7-0.7,4c0-1.1,0.1-2.2-0.1-3.3c-0.1-0.4-0.3-0.9-0.4-1.4
				c-0.2-0.4-0.7-0.4-1,0c-0.2,0.4-0.4,0.8-0.4,1.2c-0.1,1.1-0.1,2.3-0.1,3.8c0,0.4-0.4,0.6-0.7,0.5c-3.2-0.9-6.2-1.7-8.9-2.4
				c-0.2-0.1-0.4-0.3-0.4-0.6c0.1-2.1,2.6-3.4,2-5.8c-0.1-0.4-0.7-0.5-1-0.1c-1,1.6-2,3-3.2,4.8c-0.1,0.3-0.6,0.3-0.8,0.1
				c-2.8-2.6-5.5-5.1-8.5-7.8c-0.2-0.2-0.2-0.7,0.1-0.8c1.8-1.2,3.1-2.3,4.4-3.2c0.2-0.1,0.3-0.5,0.1-0.7c-0.7-0.9-1.2-0.6-5.6,2.1
				c-0.3,0.1-0.7,0-0.8-0.3c-1.1-3.5-2.3-7-3.5-10.9C333.3,70.8,333.5,70.4,333.9,70.4z M329.3,120.7c5.7,0,10.4,4.6,10.4,10.4
				c0,5.7-4.6,10.4-10.4,10.4c-5.8,0-10.4-4.6-10.4-10.4C319,125.3,323.6,120.7,329.3,120.7z M155.8,199.3c1.8-0.2,3.7-0.4,5.6-0.7
				c0.4-0.1,0.9-0.7,1-1.1c0.9-5.1,1.7-10.1,2.5-15.2c1.3-8.2,2.6-16.2,3.9-24.4c1-6,2.1-11.8,3.1-17.8c0.7-4.6,3-15.7,3.5-17.1
				c-4,0.7-11.4,2.1-14.6,2.5c-0.4-4.9-0.7-9.2-1-13.8c6-0.6,11.9-1.2,17.8-1.8c6-0.6,11.9-1,17.9-1.6c0.1,0.3,0.2,0.7,0.1,0.9
				c-1.5,1.5-0.4,2.9,0.1,4.2c4.2,10.7,8.5,21.5,12.6,32.1c4.3,11,8.5,21.9,12.8,32.9c1.4,3.5,2.7,7.1,4,10.5
				c0.4,1.2,1.6,1.8,2.8,1.8c1.9-0.1,3.4-0.2,5.5-0.4c0.4,0,0.7,0.2,0.7,0.6c0.3,2.1,1.2,8.5,1.5,9.7c0.2,1.1-0.3,1.5-1.2,1.5
				c-8.8,1-36.6,4.9-38.4,5.4c-0.6-4.3-1.2-8.9-1.8-13.7c4.3-0.4,8.3-0.7,12.4-1c1.5-0.1,2.5-1.5,2.1-2.9c-0.1-0.7-0.3-1.2-0.4-1.8
				c-0.9-3.6-2.1-7.5-2.9-11c-0.1-0.2-0.1-0.4-0.2-0.8c-0.3-1.2-1.4-1.9-2.6-1.8c-0.1,0-0.2,0-0.4,0c-6.2,0.5-12.4,1.1-18.6,1.6
				c-0.8,0.1-1.6,0.2-2.4,0.4c-1.2,0.1-1.8,0.9-2,2.1c-1.4,8.7-4.5,28.7-4.8,30.3c-0.4,1.5-1,1.8-2.1,1.9
				c-4.4,0.4-15.1,2.4-16.7,2.8c-0.3-2.1-0.7-4.6-1-7c-0.2-1.5-0.4-3.1-0.7-4.7C153.7,199.9,154.1,199.5,155.8,199.3z M182,242.4
				c-5.2-4.3-11.3-6.5-18-6.6c-10.3-0.2-18.5,4.4-24.6,12.4c-6.4,8.3-9,17.9-8.6,28.2c3.2,17,14.8,23.8,23.9,25.4
				c7.9,1.3,15.4,0.4,22.6-3.5c1.1-0.6,2.5,0.1,2.6,1.4c0.4,3.2,0.7,5.4,1.5,8.2c0.9,2.9,1,2.8-1.5,4.3c-7,4.1-14.6,4.6-22.3,4.1
				c-3.7-0.2-7.4-0.6-11-1.4c-7.9-1.8-14-5.5-19.9-11c-2.5-2.4-9.3-10.5-11.2-21.8c-0.7-5.3-0.5-10.6,0.1-16
				c1.1-7.9,3.3-15.3,7.3-22.1c6.7-11.4,16.3-19,29.3-22.2c8.4-2.1,16.5-1,24.6,1.5c2,0.7,4,1.3,6,2.1l3.6-6
				c4.6,2.5,8.9,4.9,13.5,7.3c-2.6,4-11.8,16-13.9,19.5C184.6,244.6,183.3,243.5,182,242.4z M245.9,275.7c-0.7,1.5-1.7,2.9-2.6,4.6
				c-2.4-1.2-8.4-4.1-10.9-5.1c1.3-1.8,2-8.6-4-10.4c-1.6-0.5-3.4-0.5-5-0.1c-6.6,1.5-7.9,6.2-7.9,10.1c-0.2,1.4,0.1,2.9,0.1,4.4
				c0.4,8.4,1,16.8,1.4,25.2c0,0.3,0.1,0.7,0.2,0.7c5-0.4,8.3-0.6,13.1-0.9c0.1,3.2,0.4,4.8,0.5,7.2c0.1,1.7-0.2,3.4-2,3.5
				c-7.1,0.4-28.2,2.6-32.9,3.3c-0.2-3.6-0.4-6.3-0.7-9.2c-0.1-0.7-0.1-1.5-0.2-2.2c-0.1-1.2,0.5-1.7,1.8-1.7
				c2.3-0.1,4.6-0.3,7.1-0.4c-0.1-3.3-0.3-6.5-0.5-9.7c-0.3-3.7-0.7-7.5-1-11.2c-0.4-6-0.5-12-1.2-17.9c-0.4-3-6.2-2.3-9.6-1.6
				c-0.3-4-0.6-7.7-1-11.8c8-0.5,14.6-1,22.3-1.5c-0.1,3.3,0.2,5,0.3,7.9c1-0.6,6.7-5.4,13-6.4c6.2-1,11.4,0.4,16,4.3
				C247.4,261.5,248.5,270.1,245.9,275.7z M246,196.6c-0.3-2.1-0.6-4.3-0.9-6.6c-0.1-1,0.4-1.2,1.2-1.2c1.7-0.2,3.5-0.6,5.2-0.9
				c0.8-0.1,1.3-0.9,1.2-1.6c-0.5-4.3-1-8.4-1.6-12.5c-0.7-5-1.4-9.9-2.1-14.9c-0.6-4.1-1.2-11.9-1.5-16.2c-0.1-1.6-1.5-2.7-3.1-2.4
				c-1.8,0.4-4,1-5.9,1.4c-0.8,0.2-1.6-0.4-1.8-1.2c-0.4-2.4-0.8-4.7-1.2-7.1c-0.1-0.8,0.4-1.6,1.2-1.7c7.5-1.2,14.9-2.4,22.6-3.5
				c0.8-0.1,1.5,0.4,1.7,1.2c0.7,3.7,1.2,8,1.5,7.6c1.8-2.3,3.8-4,6.3-5.2c7.1-3.5,14.3-4.8,21.7-1.1c0.5,0.3,1,0.6,1.5,0.9
				c4.6,2.9,7.6,7.8,8.5,13.2c1.1,7.8,2.2,21.1,3.1,27.6c0.2,1.8,0.5,3.6,0.7,5.4c0.1,0.9,1,1.5,1.8,1.2l4.3-0.9
				c1.1-0.2,1.5,0.1,1.8,1.8c0.4,2.9,0.6,5,0.7,7.4c0.1,2.4,0.3,2.4-2,2.7c-5.2,0.7-16.4,2.6-16.8,2.6c-0.9,0.2-2.1,0-2.2-1.1
				c-0.1-1-0.2-1.9-0.4-2.9c-0.7-5.3-1.4-10.5-2.1-15.8c-0.7-5.1-1.2-10.1-1.9-15.1c-0.3-2.1-0.7-4.2-1.1-6.4
				c-0.6-3.1-2.3-5.9-4.9-7.6c-0.7-0.5-1.5-0.9-2.3-1c-6.5-1-11.8,1.1-15.3,6.6c-1.5,2.6-1.1,5.9-0.8,8.5c1.2,10.3,2.6,20.7,3.8,31
				c0.1,1.4,0.4,2.9,0.5,4.3c0.1,0.8-0.4,1.5-1.2,1.6c-2.8,0.4-17.5,3-18.3,3.2C247.1,197.9,246.1,197.5,246,196.6z M282.9,291.9
				c-18.1,0-32.7-14.6-32.7-32.7s14.6-32.7,32.7-32.7c18.1,0,32.7,14.6,32.7,32.7S301,291.9,282.9,291.9z M316.5,209.3
				c-0.1-3.3-0.2-6.6-0.4-9.9c-0.1-1.2,0.3-1.6,1.5-1.6c2.8,0,5.6-0.2,8.7-0.4c0-4.6-0.1-8.9,0-13.2c0.1-6.5,0.2-12.9,0.4-19.4
				c0-0.7,0-1.6,0-2.8c-2.1,0-9.6,0.4-12.9,0.7c-0.1-1.4,0.1-9.3,0-11.8c-0.1-1.2,0.4-1.6,1.6-1.6c2.4,0.1,4.7,0.1,7.1,0
				c5.9-0.1,11.8-0.4,17.6-0.6c0.4,0,0.7,0,1.6,0c-0.4,5.6-1.8,34-2,46.7c0,0.7,0,1.5,0,2c3.5,0,6.8,0,9.9,0c0,3.3-0.3,10.2-0.3,12
				c-0.7,0.1-2.5,0-3,0C338.4,209.2,316.6,209.8,316.5,209.3z M361.6,259.4c-1.3,0-6.8-0.1-8.4-0.1c0.1-1.5,0.5-5-2.2-6.6
				c-0.2-0.1-0.5-0.3-0.7-0.4c-4.3-2.5-11.1-1.2-14,2.9c-6.3,10,8.2,15,12.5,17.9c1.5,1,5.6,3.4,7.3,5.1c4.9,4.9,5.1,10.7,4.4,17.6
				c-0.4,3.6-1.6,6-4.9,8.9c-3.7,3.2-9.7,4.4-14.4,4.2c-4.4-0.1-21-3.6-17.6-21.3c0.2-1,0.6-2,0.9-3.1c4.1,1.5,8.1,3,12.5,4.7
				c-4.6,5.1,1.1,11.5,7.6,8.8c0.7-0.3,1.5-0.8,2.1-1.3c3.7-3.6,2.1-9-0.7-11.3c-2.4-2.1-18.2-10-21.5-15.3
				c-2.5-4.1-3.2-7.9-2.9-12.3c0.3-4.5,1.8-8.5,4.8-11.8c6-6.5,16.6-8.2,24.3-3.9c0.4,0.2,0.9,0.5,1.8,1c0-1.7,0.1-3,0-4.3
				c-0.1-1.3,0.4-1.8,1.6-1.8c3.2,0,5.4,0,9,0c0,6.3-0.4,15.1-0.4,18.9C362.7,258.8,363.2,259.4,361.6,259.4z M406.5,286.2
				c-1.5,0.1-6.6-0.1-10.1,0.2c0.1-1.8,0.3-5.2-1.2-6.3c-1.8-1.3-3.9-2.1-6.1-2.1c-5.1,0-9.7,2.1-10.9,7.6c-0.3,1.4-0.1,3.1,0.4,4.5
				c2.1,5.4,10.7,7.9,15.6,11.2c11.6,7.5,10.2,20.7,8.8,24.5c-1.9,5.3-5.9,7.9-11.3,8.9c-16.1,2.3-27.7-7.1-23.9-23.3
				c4.1,1.5,8.1,3,12.1,4.5c-3.3,4.7,4,11.8,10.5,6.1c4.8-5.4-2.3-11.1-3.7-12.1c-5.9-4.1-23.7-9-20.8-30.4c2.1-6.2,6.4-10,12.5-12
				c6.1-2,11.8-1.2,17.5,2.6c0-2.1,0-4,0-6c3.9-0.1,6.2-0.3,9.9-0.4c0.1,0.9,0.2,3.6,0.3,5.4c0.1,5.1,0.3,10.2,0.4,15.4
				C406.7,284.9,406.6,285.4,406.5,286.2z M394.3,204c0.1-2.1,0.2-2.8,0.4-5c0.3-4,0.7-8.1,1-12.1c0.5-8.5,1-17.1,1.3-25.7
				c0.1-1,0.2-2.7,0.1-4.6c-0.3-8.7-12.4-11.1-15.7-3.1c-0.1,0.2-0.1,0.4-0.2,0.6c-1,3-1.2,6.4-1.4,9.7c-0.7,11.8-1.2,23.6-1.8,35.4
				c0,0.4-0.1,0.8-0.1,1.2c-1.5,0-3.9,0-5.4-0.1c-4.9-0.3-8-0.6-12.9-0.7c-1.3-0.1-3.5-0.1-5-0.4c0.2-4,0.4-6.9,0.5-11.3h8.5
				c0.1-0.6,0.2-1,0.2-1.5c0.1-7.3,0.2-14.6,0.4-21.9c0.2-7.5,1.3-24,1.7-24.8c-1.5-0.1-7.6-0.1-10-0.1v-9.6
				c8.4,0.4,16.2,0.9,24.7,1.2c-0.6,3.9-0.8,6.8-1.2,10.4c0.7-1.4,5.5-7.3,17.4-6c6,0.7,10.3,2.8,13.2,8.2c5.1-5.8,11.8-7.4,19-6.5
				c0.1,0,0.1,0,0.2,0c8.8,1,15.4,8.7,15.4,17.6c0,2,0,4-0.1,5.4c-0.4,9.9-1,19.8-1.6,29.6c-0.1,0.9,0,1.7,0,2.4h9.4
				c-0.2,3.7-0.4,10.1-0.4,11c-2.8-0.1-22.1-1-23.1-0.9c0-1.3-0.1-1.5,0-2.9c0.3-7,0.7-14,1-21c0.3-6.3,0.5-12.7,0.7-19
				c0-0.2,0-0.4,0-0.7c-0.1-6.8-7.6-11.1-13.3-7.4c-0.2,0.1-0.4,0.3-0.6,0.4c-3.2,2.5-4.6,5.9-4.8,9.8c-0.6,11-1,22-1.5,33
				c0,0.7,0.1,1.5,0.1,2.2h11.7c0.1,0.3,0,5.4,0,7.9C419.7,204.9,395.7,204.2,394.3,204z M434.6,224.7c0,5.7-4.6,10.4-10.4,10.4
				c-5.8,0-10.4-4.6-10.4-10.4s4.6-10.4,10.4-10.4C430,214.3,434.6,218.9,434.6,224.7z M411.5,303.7c0-4.1,0-7.7,0-12.1
				c3-0.1,6.2-0.4,9.6-0.6c0-2.9,0-5.7,0-8.5c0.1-8,0.2-16,0.4-24c0-0.8,0.2-1.7,0.1-2.9c-0.3-0.1-11.3,0.4-12.6,0.1
				c0-4.1,0-8.5,0-13c8.9-0.3,16.5-0.4,25.6-0.7c0,0.1-0.1,4.3-0.1,6.5c0.1,13.5,0.1,26.8,0.2,40.3c0,0.7,0.1,1.2,0.1,1.8
				c3.4,0,4.3,0,7.9,0c0,3.4,0.1,10.7,0.1,12.1C442.2,302.9,414,303.7,411.5,303.7z M511.1,334.3c-1.8-0.1-19.4-2.3-20.7-2.2
				c0.4-3.1,3.8-28,4.1-41.2c0.1-6.7-5.6-12.1-12.3-11.2c-0.1,0-0.1,0-0.1,0c-3.5,0.5-6.5,1.5-8.9,4.6c-4,4-6,36-6.5,41.9
				c-0.1,1.6-0.7,2.3-2.4,2.1c-5.3-0.5-18.3-1.7-19.8-1.5c0.1-1.5,0.1-2.9,0.4-4.8c0.1-1.3,0-3.1,0.8-3.8c0.7-0.7,2.5-0.1,3.7-0.1
				c1.3,0.1,2.6,0.1,4.1,0.3c0.5-4.9,5-47,5.3-48c-2,0.1-7.2,0-9.9-0.1c0-0.9,0-1.6,0-2.4c0.1-2,0.3-4,0.4-6c0.1-1.3,0.5-2,2.1-1.8
				c7.4,0.7,14.7,1.2,22.1,1.8c0.4,0,0.8,0.2,1.4,0.4c-3.2,2.9-1.5,6.6-2.6,9.7c0.2,0.1,0.4,0.2,0.6,0.3c0.6-0.2,1.4-0.4,1.8-0.8
				c3.5-3.2,7.9-4.3,12.4-4.6c6.4-0.4,12.4,0.9,17.2,5.4c2.2,2.1,4.3,5.2,4.9,7.6c1.2,5.6,0.1,9.3-0.4,13.7c-0.8,6.8-3,28.5-3,28.9
				h6.6C511.9,327.2,511.7,330,511.1,334.3z M569.6,337.1c-7,2.9-14,2.9-20.7-0.8c-0.6-0.3-1.5-1-2.4-1.5
				c-6.1-4.2-9.2-11.8-7.2-18.9c0.7-2.6,2-4.9,3.8-6.8c7.2-7.2,18.5-5.7,23.1,2.5c-0.8,0.9-6.4,5.4-8.6,7c-9.8-8.5-15.9,3.6-5.8,8.2
				c0,0.1,11.5,4.7,17.7-3.6c2.9-4.3,1.4-9.3,0.4-13.3c-1.4-5.7-2.9-11.3-4.3-17c-0.1-0.7-14.9,6.5-22.6,6.7
				c-12.6,1.2-22.3-8.5-24.4-11c-1-1.5-1.8-2.8-2.5-4.1c-5.4-10.6-5.1-24,2.8-33.6c8.8-10.7,20.5-12.2,33.5-9.3
				c-0.5-2.7-1-5.6-1.6-8.5c7.6-1.8,13.5-3.3,21.5-5.2c1.2,4.9,1.7,6.2,2.4,9.3c0.4,1.9,0,2.6-1.7,3.2c-4.6,1.7-4.4,1.7-3.2,6.5
				c2.2,9,14.6,61.3,15,67.2C585.5,324.5,579.7,332.9,569.6,337.1z"/>
			<path id="Path_00000097489413568747285620000006017427702502935471_" class="st0" d="M556.5,260.9c-0.3-1.5-1.4-5.5-1.8-5.8
				c-4.6-3.2-8.5-4.2-14.1-2.9c-8.4,1.9-12.7,6.9-13.5,13.5c-1.2,9.5,5.4,18,14.8,20.1c0.4,0.1,0.7,0.1,1,0.2c6,1.2,13.2-2,16.2-7.4
				c0.8-1.5,1-3.2,0.6-4.8C558.6,269.6,557.4,265.2,556.5,260.9z"/>
		</g>
	</g>
</g>
<g>
	<path class="st0" d="M146.4,376.6c0.9-3,2.8-3.8,5.6-2.7c1.7,0.7,3.5,2.3,2.5,5.5c-4,13-11.2,35.7-15.6,48.3
		c-0.9,2.8-2.5,4.2-6.7,4.2c-4.2,0-5.8-1.3-6.7-4.2c-4.5-13.4-11.7-36-15.6-48.3c-1-3.3,0.6-4.9,2.5-5.5c2.9-0.8,4.6-0.8,5.6,2.7
		c4.5,14.4,9.3,32.3,14.2,46.7C137.1,408.9,141.9,391.1,146.4,376.6z"/>
	<path class="st0" d="M160.2,376.3c0-3.5,2.7-6.2,6-6.2c3.3,0,6,2.8,6,6.2c0,3.6-2.7,6.4-6,6.4C162.9,382.7,160.2,379.9,160.2,376.3
		z M163.1,428.1c-0.6-11.9-0.6-23.1-0.9-34.9c-0.1-2.7,1.1-3.6,3.9-3.6c3,0,4,0.6,4,3.3c0.2,11.4-0.2,23.4-0.2,34.3
		c0,3.2-0.9,4.1-3,4.3C164.8,431.7,163.2,430.8,163.1,428.1z"/>
	<path class="st0" d="M183.5,431.9c-2.4-0.2-3.2-1-3.3-4.6c-0.3-17.1-0.3-34.2-0.2-51.6c0-3,1-3.6,4.3-3.6c2.9,0,4.2,0.9,4.2,3.9
		c-0.1,15-0.3,40.3-0.9,52.1C187.4,431.2,185.8,432,183.5,431.9z"/>
	<path class="st0" d="M202,431.9c-2.4-0.2-3.2-1-3.3-4.6c-0.3-17.1-0.3-34.2-0.2-51.6c0-3,1-3.6,4.3-3.6c2.9,0,4.2,0.9,4.2,3.9
		c-0.1,15-0.3,40.3-0.9,52.1C205.9,431.2,204.3,432,202,431.9z"/>
	<path class="st0" d="M237.6,431.8c-12,0.6-22.2-7.3-22-20.8c0.2-12.9,9.6-22.2,22.6-21.7c5.6,0.4,10.8,3.4,12.6,6.6
		c0.1-1.1,0.2-2.6,0.2-3.7c0.2-1.3,0.9-2.8,3.6-2.8c2.8,0,4.2,1,4.3,3c0.1,3.3,0.1,7.4,0.1,11.5c0,9.3-0.2,19.5-0.5,25.1
		c-0.2,1.7-1.3,2.8-2.9,2.8c-2,0-2.7-0.6-3-1.7c-0.4-1.8-0.7-3.2-1-5.5C249.3,429.3,243.1,431.5,237.6,431.8z M223.5,410.8
		c0,9.6,7.2,14.4,15.4,13.9c7.4-0.4,13-6,13-14.4c-0.1-7.7-5.8-13.4-13.9-14C229.8,396.5,223.5,403.2,223.5,410.8z"/>
	<path class="st0" d="M286.5,429.5c-10.4,0.6-20.6-5.9-20.4-19.5c0.2-12.1,9.2-21,21.4-20.7c5.4,0.2,9.9,3.3,11.6,6.5
		c0.1-1.1,0.2-2.5,0.2-3.6c0.1-1.3,0.9-2.8,3.6-2.8c2.8,0,4.3,1,4.3,3c-0.1,11.3-0.2,26-0.6,37.1c-0.5,13-10.5,18.2-19.8,18.2
		c-8.5,0-14.9-3.7-17.4-8.3c-1.1-2.1-0.8-4.2,0.9-5.5c2-1.3,3.6-1.5,5,0.9c1.7,2.8,5.2,5.5,11.1,5.6c7.4,0.2,12.5-4.5,12.7-12.1
		c0.1-1.7,0.2-4.5,0.3-6.3C297.3,426.3,291.8,429.2,286.5,429.5z M300.3,409.2c-0.1-7.4-4.7-12.7-13-12.8
		c-8.2-0.2-13.3,5.5-13.3,13.5c0,9.6,6.9,13.1,13.8,12.6C294.3,422,300.4,416.9,300.3,409.2z"/>
	<path class="st0" d="M350.9,419.9c2.4,1.9,2.6,3,1,5.1c-2.5,3.5-9,6.7-16.9,6.8c-12.6,0.1-20.6-6.7-20.6-20.3
		c0-13,7.4-21.6,19.9-22.2c12.7-0.6,20.3,8.4,19.5,20.5c-0.2,1.8-1,3.5-2.4,3.6c-9.3,0.7-19.4,1.1-28.8,1.7c0,6.2,4.1,10,12.5,10
		c4.1,0,9.2-1.9,11.1-4.3C348.1,418.9,349.4,418.8,350.9,419.9z M334,396.1c-7,0.3-11.4,6-11.3,12.1c3,0,19.5-0.9,23.4-1.3
		C345.7,400.2,341.5,395.8,334,396.1z"/>
	<path class="st0" d="M369.4,427.1c-0.2,3.7-1.4,4.7-3.6,4.7c-2.6,0-3.2-0.6-3.5-4c-0.6-10.4-1.1-21.9-1.1-34.2c0-2.7,0.6-4,3.9-4.2
		c3.2-0.2,4.5,0.9,4.6,3.1c0.1,1.8,0.2,6.1,0.1,8.9c3.6-7.3,11.4-12.3,19.5-11.9c2.8,0.2,4.3,1.5,4,4.2c-0.3,4-2.4,4.8-5.3,4.7
		c-9.8-0.6-18,9.3-18.2,15.2L369.4,427.1z"/>
	<path class="st0" d="M408.2,442.1c0,4-0.3,5.1-3.4,5.2c-3.2,0.1-3.6-1.3-3.9-4.6c-0.8-11-1.5-34-1.7-49.4c0-2.7,0.9-4,4.3-4
		c3.2,0,4,1.3,4,4v2.2c2-3.2,6.5-5.8,13-6.2c10.4-0.6,19.1,7.4,19.3,19.9c0.2,15-9.6,23.2-20.6,22.6c-4.1-0.2-8.9-2.1-11-5.2V442.1z
		 M431.6,410c-0.2-9-5.4-13.9-12.7-13.4c-6.8,0.6-11.7,6-11.5,14.5c0.2,9.6,5.6,13.4,11.7,13.4C425.8,424.7,431.9,419.3,431.6,410z"
		/>
	<path class="st0" d="M482.8,419.9c2.4,1.9,2.6,3,1,5.1c-2.5,3.5-9,6.7-16.9,6.8c-12.6,0.1-20.6-6.7-20.6-20.3
		c0-13,7.4-21.6,19.9-22.2c12.7-0.6,20.3,8.4,19.5,20.5c-0.2,1.8-1,3.5-2.4,3.6c-9.3,0.7-19.4,1.1-28.8,1.7c0,6.2,4.1,10,12.5,10
		c4.1,0,9.2-1.9,11.1-4.3C480,418.9,481.3,418.8,482.8,419.9z M465.8,396.1c-7,0.3-11.4,6-11.3,12.1c3,0,19.5-0.9,23.4-1.3
		C477.5,400.2,473.4,395.8,465.8,396.1z"/>
	<path class="st0" d="M513,431.8c-9.7,0.7-20.8-5.1-20.5-21.6c0.2-12.1,9.1-21,19.8-20.9c6.8,0.1,12.5,3.5,14.1,6.9
		c0.1-9.4,0.1-17.6,0.1-19.8c0-3.2,0.6-4.3,4.2-4.3c3.7,0,4.3,1.5,4.3,4.2c0,15.6-0.6,39.7-1,50.5c-0.2,3.1-1.3,5.3-4.3,5.1
		c-1.5-0.2-2.5-0.9-2.7-2.1c-0.2-1.1-0.4-3.2-0.6-5.5C524.7,428.1,518.7,431.4,513,431.8z M526.2,410.9c0.2-7.7-4.6-14.2-12.1-14.5
		c-7.6-0.3-13.4,4.7-13.5,14c-0.2,11.5,6.6,14.7,13.2,14.4C520.8,424.4,526.1,420.5,526.2,410.9z"/>
	<path class="st0" d="M542,376.3c0-3.5,2.7-6.2,6-6.2c3.3,0,6,2.8,6,6.2c0,3.6-2.7,6.4-6,6.4C544.7,382.7,542,379.9,542,376.3z
		 M544.8,428.1c-0.6-11.9-0.6-23.1-0.9-34.9c-0.1-2.7,1.1-3.6,3.9-3.6c3,0,4,0.6,4,3.3c0.2,11.4-0.2,23.4-0.2,34.3
		c0,3.2-0.9,4.1-3,4.3C546.6,431.7,545,430.8,544.8,428.1z"/>
	<path class="st0" d="M582.3,431.8c-12,0.6-22.2-7.3-22-20.8c0.2-12.9,9.6-22.2,22.6-21.7c5.6,0.4,10.8,3.4,12.6,6.6
		c0.1-1.1,0.2-2.6,0.2-3.7c0.2-1.3,0.9-2.8,3.6-2.8c2.8,0,4.2,1,4.3,3c0.1,3.3,0.1,7.4,0.1,11.5c0,9.3-0.2,19.5-0.5,25.1
		c-0.2,1.7-1.3,2.8-2.9,2.8c-2,0-2.7-0.6-3-1.7c-0.4-1.8-0.7-3.2-1-5.5C594,429.3,587.8,431.5,582.3,431.8z M568.2,410.8
		c0,9.6,7.2,14.4,15.4,13.9c7.4-0.4,13-6,13-14.4c-0.1-7.7-5.8-13.4-13.9-14C574.6,396.5,568.2,403.2,568.2,410.8z"/>
</g>
</svg>
